<?xml version="1.0" encoding="UTF-8"?><svg id="Layer_2" xmlns="http://www.w3.org/2000/svg" viewBox="0 0 79.4 79.4"><defs><style>.cls-1{fill:#522bee;}</style></defs><g id="Layer_1-2"><g><path class="cls-1" d="m67.58,79.4H11.82c-6.52,0-11.82-5.3-11.82-11.82V11.82C0,5.3,5.3,0,11.82,0h55.76c6.52,0,11.82,5.3,11.82,11.82v55.76c0,6.52-5.3,11.82-11.82,11.82ZM11.82,4c-4.31,0-7.82,3.51-7.82,7.82v55.76c0,4.31,3.51,7.82,7.82,7.82h55.76c4.31,0,7.82-3.51,7.82-7.82V11.82c0-4.31-3.51-7.82-7.82-7.82H11.82Z"/><g><path class="cls-1" d="m32.18,51.27h-12.09l-1.94,5.72h-8.26l11.72-32.41h9.14l11.72,32.41h-8.35l-1.94-5.72Zm-2.03-6.09l-4.02-11.86-3.97,11.86h7.99Z"/><path class="cls-1" d="m68.83,46.01h-17.86c.12,1.6.64,2.82,1.55,3.67.91.85,2.02,1.27,3.35,1.27,1.97,0,3.34-.83,4.11-2.49h8.4c-.43,1.69-1.21,3.22-2.33,4.57-1.12,1.35-2.53,2.42-4.22,3.19-1.69.77-3.58,1.15-5.68,1.15-2.52,0-4.77-.54-6.74-1.62-1.97-1.08-3.51-2.62-4.62-4.62-1.11-2-1.66-4.34-1.66-7.02s.55-5.02,1.64-7.02c1.09-2,2.62-3.54,4.59-4.62,1.97-1.08,4.23-1.62,6.79-1.62s4.71.52,6.65,1.57c1.94,1.05,3.45,2.54,4.55,4.48,1.09,1.94,1.64,4.2,1.64,6.79,0,.74-.05,1.51-.14,2.31Zm-7.94-4.39c0-1.35-.46-2.43-1.38-3.23-.92-.8-2.08-1.2-3.46-1.2s-2.44.39-3.35,1.15c-.91.77-1.47,1.86-1.68,3.28h9.88Z"/></g></g></g></svg>