<?xml version="1.0" encoding="UTF-8"?><svg id="Layer_2" xmlns="http://www.w3.org/2000/svg" viewBox="0 0 79.4 79.4"><defs><style>.cls-1{fill:#522bee;}</style></defs><g id="Layer_1-2"><g><path class="cls-1" d="m67.58,79.4H11.82c-6.52,0-11.82-5.3-11.82-11.82V11.82C0,5.3,5.3,0,11.82,0h55.76c6.52,0,11.82,5.3,11.82,11.82v55.76c0,6.52-5.3,11.82-11.82,11.82ZM11.82,4c-4.31,0-7.82,3.51-7.82,7.82v55.76c0,4.31,3.51,7.82,7.82,7.82h55.76c4.31,0,7.82-3.51,7.82-7.82V11.82c0-4.31-3.51-7.82-7.82-7.82H11.82Z"/><g><path class="cls-1" d="m38.31,51.98h-12.58l-2.02,5.95h-8.59l12.19-33.7h9.5l12.19,33.7h-8.69l-2.02-5.95Zm-2.11-6.34l-4.18-12.34-4.13,12.34h8.3Z"/><path class="cls-1" d="m52.45,27.1c-.91-.85-1.37-1.9-1.37-3.14s.46-2.34,1.37-3.19c.91-.85,2.09-1.27,3.53-1.27s2.57.42,3.48,1.27c.91.85,1.37,1.91,1.37,3.19s-.46,2.3-1.37,3.14c-.91.85-2.07,1.27-3.48,1.27s-2.62-.42-3.53-1.27Zm7.61,4.06v26.78h-8.21v-26.78h8.21Z"/></g></g></g></svg>