<?xml version="1.0" encoding="UTF-8"?><svg id="Layer_2" xmlns="http://www.w3.org/2000/svg" viewBox="0 0 79.4 79.4"><defs><style>.cls-1{fill:#522bee;}</style></defs><g id="Layer_1-2"><g><path class="cls-1" d="m67.58,79.4H11.82c-6.52,0-11.82-5.3-11.82-11.82V11.82C0,5.3,5.3,0,11.82,0h55.76c6.52,0,11.82,5.3,11.82,11.82v55.76c0,6.52-5.3,11.82-11.82,11.82ZM11.82,4c-4.31,0-7.82,3.51-7.82,7.82v55.76c0,4.31,3.51,7.82,7.82,7.82h55.76c4.31,0,7.82-3.51,7.82-7.82V11.82c0-4.31-3.51-7.82-7.82-7.82H11.82Z"/><g><path class="cls-1" d="m28.47,24.24v33.7h-8.21V24.24h8.21Z"/><path class="cls-1" d="m34.43,37.25c1.04-2.08,2.46-3.68,4.25-4.8,1.79-1.12,3.79-1.68,6-1.68,1.76,0,3.37.37,4.82,1.1,1.46.74,2.6,1.73,3.43,2.98v-12.43h8.21v35.52h-8.21v-3.84c-.77,1.28-1.86,2.3-3.29,3.07-1.42.77-3.08,1.15-4.97,1.15-2.21,0-4.21-.57-6-1.7-1.79-1.14-3.21-2.75-4.25-4.85-1.04-2.1-1.56-4.52-1.56-7.27s.52-5.17,1.56-7.25Zm16.8,2.45c-1.14-1.18-2.52-1.78-4.15-1.78s-3.02.58-4.15,1.75c-1.14,1.17-1.7,2.78-1.7,4.82s.57,3.67,1.7,4.87c1.14,1.2,2.52,1.8,4.15,1.8s3.02-.59,4.15-1.78c1.14-1.18,1.7-2.8,1.7-4.85s-.57-3.66-1.7-4.85Z"/></g></g></g></svg>