<?xml version="1.0" encoding="UTF-8"?><svg id="Layer_2" xmlns="http://www.w3.org/2000/svg" viewBox="0 0 79.4 79.4"><defs><style>.cls-1{fill:#522bee;}</style></defs><g id="Layer_1-2"><g><path class="cls-1" d="m67.58,79.4H11.82c-6.52,0-11.82-5.3-11.82-11.82V11.82C0,5.3,5.3,0,11.82,0h55.76c6.52,0,11.82,5.3,11.82,11.82v55.76c0,6.52-5.3,11.82-11.82,11.82ZM11.82,4c-4.31,0-7.82,3.51-7.82,7.82v55.76c0,4.31,3.51,7.82,7.82,7.82h55.76c4.31,0,7.82-3.51,7.82-7.82V11.82c0-4.31-3.51-7.82-7.82-7.82H11.82Z"/><g><path class="cls-1" d="m39.14,39.44c-.9,1.62-2.27,2.92-4.13,3.91-1.86.99-4.16,1.49-6.91,1.49h-5.09v12.1h-8.21V23.24h13.3c2.69,0,4.96.46,6.82,1.39,1.86.93,3.25,2.21,4.18,3.84.93,1.63,1.39,3.5,1.39,5.62,0,1.95-.45,3.74-1.34,5.35Zm-8.16-2.23c.77-.74,1.15-1.78,1.15-3.12s-.38-2.38-1.15-3.12c-.77-.74-1.94-1.1-3.5-1.1h-4.46v8.45h4.46c1.57,0,2.74-.37,3.5-1.1Z"/><path class="cls-1" d="m48.42,56.12c-1.82-.8-3.26-1.9-4.32-3.29s-1.65-2.95-1.78-4.68h8.11c.1.93.53,1.68,1.3,2.26.77.58,1.71.86,2.83.86,1.02,0,1.82-.2,2.38-.6.56-.4.84-.92.84-1.56,0-.77-.4-1.34-1.2-1.7-.8-.37-2.1-.78-3.89-1.22-1.92-.45-3.52-.92-4.8-1.42-1.28-.5-2.38-1.28-3.31-2.35-.93-1.07-1.39-2.52-1.39-4.34,0-1.54.42-2.94,1.27-4.2.85-1.26,2.1-2.26,3.74-3,1.65-.74,3.61-1.1,5.88-1.1,3.36,0,6.01.83,7.94,2.5,1.94,1.66,3.05,3.87,3.34,6.62h-7.58c-.13-.93-.54-1.66-1.22-2.21-.69-.54-1.59-.82-2.71-.82-.96,0-1.7.18-2.21.55-.51.37-.77.87-.77,1.51,0,.77.41,1.34,1.22,1.73.82.38,2.09.77,3.82,1.15,1.98.51,3.6,1.02,4.85,1.51,1.25.5,2.34,1.3,3.29,2.4.94,1.1,1.43,2.58,1.46,4.44,0,1.57-.44,2.97-1.32,4.2-.88,1.23-2.14,2.2-3.79,2.9-1.65.7-3.56,1.06-5.74,1.06-2.34,0-4.42-.4-6.24-1.2Z"/></g></g></g></svg>