<svg xmlns="http://www.w3.org/2000/svg" width="22" height="45" fill="currentColor" viewBox="0 0 22 45">
  <path d="M21.998 33.663c-.006-5.196-2.89-8.975-5.677-12.628-2.013-2.637-3.923-5.14-4.59-8.006 0-.003 0-.006.003-.006.851-.23 1.733-.347 2.625-.347 1.312 0 2.587.249 3.786.74 2.996 1.111 3.712-1.61 3.855-3.551v-2.29c0-4.13-3.354-7.5-7.505-7.574-4.29-.075-7.778 3.424-7.778 7.676v2.774l-.001.005c-3.038 1.904-5.29 4.916-6.222 8.342a14.12 14.12 0 0 0 0 7.404c.932 3.426 3.184 6.438 6.222 8.342l.001.005v2.774c0 4.252 3.488 7.752 7.778 7.676 4.15-.073 7.505-3.442 7.505-7.572v-3.175c0-.251 0-.44-.008-.59h.006v.001ZM11.161 7.642c0-1.676 1.284-3.112 2.972-3.229a3.205 3.205 0 0 1 2.483.923 3.14 3.14 0 0 1 .94 2.239v1.051a14.497 14.497 0 0 0-3.197-.355c-1.047 0-2.093.113-3.108.335l-.09.02v-.984ZM8.256 30.245c-2.422-1.877-3.813-4.701-3.813-7.744a9.726 9.726 0 0 1 3.045-7.087c.003-.003.008 0 .008.002 1.061 3.21 3.086 5.865 5.053 8.443 2.039 2.673 3.974 5.209 4.549 8.082 0 .003 0 .005-.003.006a9.999 9.999 0 0 1-2.738.38 9.935 9.935 0 0 1-3.786-.74 9.929 9.929 0 0 1-2.317-1.342h.002Zm9.299 7.115c0 1.675-1.284 3.111-2.972 3.228a3.202 3.202 0 0 1-2.483-.922 3.14 3.14 0 0 1-.94-2.24v-1.05c.031.005.06.013.092.02a14.552 14.552 0 0 0 6.213 0c.03-.007.06-.015.09-.02v.984Z"/>
</svg>
