<svg xmlns="http://www.w3.org/2000/svg" width="20" height="52" fill="currentColor" viewBox="0 0 20 52">
  <path d="M6.685 17.611c.295-.228.602-.44.922-.637a10.654 10.654 0 0 1 2.652-1.18 10.985 10.985 0 0 1 3.084-.439c1.462 0 2.857.285 4.13.804A10.79 10.79 0 0 1 20 17.612V6.551C20 2.94 17.015 0 13.343 0S6.685 2.94 6.685 6.552v8.07C2.692 16.894 0 21.141 0 26c0 4.858 2.692 9.105 6.685 11.379v8.069C6.685 49.06 9.673 52 13.343 52 17.013 52 20 49.06 20 45.448v-8.413l-.922-2.009a10.654 10.654 0 0 1-2.651 1.18c-.976.285-2.012.439-3.084.439-1.462 0-2.858-.285-4.13-.804a10.792 10.792 0 0 1-2.528-1.453C4.155 32.44 2.527 29.407 2.527 26s1.627-6.44 4.158-8.389ZM9.213 6.553c0-2.235 1.859-4.064 4.13-4.064 1.135 0 2.167.457 2.917 1.193a4.026 4.026 0 0 1 1.213 2.871v6.96a13.475 13.475 0 0 0-4.13-.644c-1.441 0-2.83.226-4.13.644v-6.96Zm0 31.936c1.3.418 2.689.644 4.13.644 1.44 0 2.829-.226 4.13-.644v6.96c0 2.235-1.86 4.065-4.13 4.065a4.157 4.157 0 0 1-2.917-1.194 4.026 4.026 0 0 1-1.213-2.871v-6.96Z"/>
  <path d="m20 37.035-2.527 1.453-1.046-2.282-8.82-19.232-.922-2.009 2.528-1.453 1.046 2.282 8.82 19.232.921 2.009Z"/>
</svg>
